<svg width="116" height="108" viewBox="0 0 116 108" fill="none" xmlns="http://www.w3.org/2000/svg">
<path d="M59.5466 69.8721H56.4532V76.2213H59.5466V69.8721Z" fill="white"/>
<path d="M59.5466 31.7778H56.4532V38.127H59.5466V31.7778Z" fill="white"/>
<path d="M42.5333 52.4136H36.3466V55.5882H42.5333V52.4136Z" fill="white"/>
<path d="M79.6534 52.4136H73.4667V55.5882H79.6534V52.4136Z" fill="white"/>
<path d="M74.3989 68.5904L70.0221 64.0986L67.8348 66.3434L72.2116 70.8352L74.3989 68.5904Z" fill="white"/>
<path d="M48.1519 41.6558L43.7751 37.1641L41.5878 39.4088L45.9646 43.9006L48.1519 41.6558Z" fill="white"/>
<path d="M48.1584 66.3434L45.9711 64.0986L41.5943 68.5904L43.7816 70.8352L48.1584 66.3434Z" fill="white"/>
<path d="M74.4038 39.4078L72.2165 37.1631L67.8397 41.6549L70.027 43.8996L74.4038 39.4078Z" fill="white"/>
<path d="M77.697 108C72.098 108 65.7691 105.801 59.1493 101.469C48.8106 94.703 38.8973 83.476 31.2359 69.857C23.5745 56.2379 19.0574 41.8149 18.5169 29.2427C17.9608 16.2999 21.6829 6.78558 28.9978 2.45066C36.3128 -1.88426 46.2037 -0.434263 56.8471 6.53082C67.1858 13.2967 77.0992 24.5237 84.7606 38.1427C92.422 51.7618 96.939 66.1848 97.4796 78.757C98.0356 91.6999 94.3128 101.214 86.9978 105.548C84.2332 107.187 81.0989 108 77.697 108ZM38.3173 3.17446C35.4474 3.17446 32.8313 3.8451 30.5445 5.19986C24.2774 8.91256 21.1037 17.4014 21.6063 29.1022C22.1252 41.1737 26.4961 55.084 33.9147 68.2697C41.3325 81.4554 50.8839 92.2943 60.8112 98.7919C70.4338 105.09 79.1833 106.512 85.4504 102.8C91.7175 99.0872 94.8913 90.5983 94.3886 78.8975C93.8697 66.826 89.4988 52.9157 82.0802 39.73C74.6624 26.5443 65.111 15.7054 55.1837 9.20779C49.072 5.20779 43.3122 3.17446 38.3173 3.17446Z" fill="white"/>
<path d="M38.3033 108C34.9006 108 31.7678 107.188 29.0024 105.549C21.6874 101.215 17.9654 91.7002 18.5206 78.7581C19.0612 66.1859 23.5782 51.7621 31.2396 38.1438C38.9011 24.5256 48.8144 13.2986 59.1531 6.53193C69.7957 -0.432356 79.6874 -1.88395 87.0024 2.45177C94.3174 6.78589 98.0394 16.301 97.4842 29.243C96.9436 41.8153 92.4266 56.2391 84.7651 69.8573C77.1037 83.4756 67.1904 94.7026 56.8517 101.469C50.2319 105.801 43.903 108 38.3033 108ZM77.683 3.17478C72.688 3.17478 66.929 5.20811 60.8158 9.20811C50.8885 15.7057 41.3371 26.5446 33.9192 39.7303C26.5006 52.916 22.1298 66.8256 21.6109 78.8978C21.1082 90.5986 24.282 99.0875 30.549 102.8C36.8146 106.512 45.5649 105.09 55.1882 98.7922C65.1155 92.2946 74.667 81.4557 82.0848 68.27C89.5034 55.0843 93.8742 41.1748 94.3931 29.1026C94.8958 17.4018 91.7221 8.91288 85.455 5.20018C83.1698 3.84621 80.552 3.17478 77.683 3.17478Z" fill="white"/>
<path d="M58 85.7142C42.6772 85.7142 28.2468 82.5166 17.3683 76.711C6.16811 70.734 0 62.6682 0 53.9999C0 45.3317 6.16811 37.2658 17.3683 31.2888C28.2468 25.4833 42.6772 22.2856 58 22.2856C73.3228 22.2856 87.7532 25.4833 98.6317 31.2888C109.832 37.2658 116 45.3317 116 53.9999C116 62.6682 109.832 70.734 98.6317 76.711C87.7532 82.5166 73.3228 85.7142 58 85.7142ZM58 25.4602C27.7248 25.4602 3.09333 38.2626 3.09333 53.9999C3.09333 69.7372 27.7248 82.5396 58 82.5396C88.2752 82.5396 112.907 69.7372 112.907 53.9999C112.907 38.2626 88.2752 25.4602 58 25.4602Z" fill="white"/>
<path d="M58.0001 65.9052C64.4066 65.9052 69.6001 60.5753 69.6001 54.0005C69.6001 47.4256 64.4066 42.0957 58.0001 42.0957C51.5936 42.0957 46.4001 47.4256 46.4001 54.0005C46.4001 60.5753 51.5936 65.9052 58.0001 65.9052Z" fill="white"/>
<path d="M57.9999 67.4924C50.7507 67.4924 44.8533 61.44 44.8533 54.0004C44.8533 46.5607 50.7507 40.5083 57.9999 40.5083C65.2492 40.5083 71.1466 46.5607 71.1466 54.0004C71.1466 61.44 65.2492 67.4924 57.9999 67.4924ZM57.9999 43.6829C52.4567 43.6829 47.9466 48.3115 47.9466 54.0004C47.9466 59.6892 52.4567 64.3178 57.9999 64.3178C63.5432 64.3178 68.0533 59.6892 68.0533 54.0004C68.0533 48.3115 63.5432 43.6829 57.9999 43.6829Z" fill="white"/>
</svg>
